<?xml version="1.0" encoding="UTF-8" standalone="no"?>
<!-- Created with Inkscape (http://www.inkscape.org/) -->

<svg
   width="10.16mm"
   height="128.5mm"
   viewBox="0 0 10.16 128.5"
   version="1.1"
   id="svg8"
   inkscape:version="1.3.2 (091e20e, 2023-11-25, custom)"
   sodipodi:docname="SDLines.svg"
   xmlns:inkscape="http://www.inkscape.org/namespaces/inkscape"
   xmlns:sodipodi="http://sodipodi.sourceforge.net/DTD/sodipodi-0.dtd"
   xmlns="http://www.w3.org/2000/svg"
   xmlns:svg="http://www.w3.org/2000/svg"
   xmlns:rdf="http://www.w3.org/1999/02/22-rdf-syntax-ns#"
   xmlns:cc="http://creativecommons.org/ns#"
   xmlns:dc="http://purl.org/dc/elements/1.1/">
  <defs
     id="defs2" />
  <sodipodi:namedview
     id="base"
     pagecolor="#ffffff"
     bordercolor="#666666"
     borderopacity="1.0"
     inkscape:pageopacity="0.0"
     inkscape:pageshadow="2"
     inkscape:zoom="1.5556349"
     inkscape:cx="296.98485"
     inkscape:cy="285.41401"
     inkscape:document-units="mm"
     inkscape:current-layer="layer1"
     showgrid="false"
     inkscape:window-width="2644"
     inkscape:window-height="1338"
     inkscape:window-x="406"
     inkscape:window-y="124"
     inkscape:window-maximized="0"
     showguides="false"
     inkscape:showpageshadow="2"
     inkscape:pagecheckerboard="0"
     inkscape:deskcolor="#d1d1d1" />
  <metadata
     id="metadata5">
    <rdf:RDF>
      <cc:Work
         rdf:about="">
        <dc:format>image/svg+xml</dc:format>
        <dc:type
           rdf:resource="http://purl.org/dc/dcmitype/StillImage" />
      </cc:Work>
    </rdf:RDF>
  </metadata>
  <g
     inkscape:label="Layer 1"
     inkscape:groupmode="layer"
     id="layer1"
     transform="translate(0,-168.5)"
     style="display:inline;opacity:1">
    <rect
       style="fill:#93aca7;fill-opacity:1;stroke-width:0.0836686"
       id="rect815"
       width="10.16"
       height="128.5"
       x="0"
       y="168.5" />
    <path
       d="m 1.6918107,217.93259 q -0.1674316,0 -0.2821533,-0.11473 -0.1147217,-0.11472 -0.1147217,-0.28215 v -1.19062 h 0.396875 v 1.19062 h 0.396875 v -1.5875 h -0.396875 q -0.1674316,0 -0.2821533,-0.11472 -0.1147217,-0.11472 -0.1147217,-0.28215 v -1.19063 q 0,-0.16433 0.1147217,-0.27905 0.1147217,-0.11782 0.2821533,-0.11782 h 0.396875 q 0.164331,0 0.2790527,0.11782 0.1178223,0.11472 0.1178223,0.27905 v 0.79375 h -0.396875 v -0.79375 h -0.396875 v 1.19063 h 0.396875 q 0.164331,0 0.2790527,0.11782 0.1178223,0.11472 0.1178223,0.27905 v 1.5875 q 0,0.16743 -0.1178223,0.28215 -0.1147217,0.11473 -0.2790527,0.11473 z m 1.984375,-0.39688 v -3.175 h -0.396875 v 3.175 z m -0.79375,0.39688 v -3.96875 h 0.79375 q 0.164331,0 0.2790527,0.11782 0.1178223,0.11472 0.1178223,0.27905 v 3.175 q 0,0.16743 -0.1178223,0.28215 -0.1147217,0.11473 -0.2790527,0.11473 z m 3.1749999,0 q -0.1674316,0 -0.2821533,-0.11473 -0.1147217,-0.11472 -0.1147217,-0.28215 v -3.57187 h 0.396875 v 3.57187 h 0.79375 v 0.39688 z"
       id="text53"
       style="font-size:6.35px;font-family:'BrightonTwo SmallCaps NBP';-inkscape-font-specification:'BrightonTwo SmallCaps NBP, Normal';fill:#536c5d;stroke-width:0.329993"
       transform="scale(1.2472193,0.80178361)"
       aria-label="SD   L" />
    <path
       id="rect54"
       style="display:inline;fill:#536c5d;stroke-width:0.247537"
       d="m 5.6704412,172.72301 h 0.842 v 0.842 h -0.842 z" />
  </g>
  <g
     inkscape:groupmode="layer"
     id="layer3"
     inkscape:label="labels"
     style="display:inline">
    <text
       xml:space="preserve"
       style="font-style:normal;font-variant:normal;font-weight:normal;font-stretch:normal;font-size:3.52778px;line-height:1.25;font-family:Mandatory;-inkscape-font-specification:'Mandatory, Normal';font-variant-ligatures:normal;font-variant-caps:normal;font-variant-numeric:normal;font-feature-settings:normal;text-align:start;letter-spacing:0px;word-spacing:0px;writing-mode:lr-tb;text-anchor:start;fill:#000000;fill-opacity:1;stroke:none;stroke-width:0.264583"
       x="74.32386"
       y="113.58712"
       id="text1400" />
  </g>
  <g
     inkscape:groupmode="layer"
     id="layer2"
     inkscape:label="components"
     style="display:inline" />
</svg>
